HIERARCHY
ROOT Hips
{
	OFFSET -0.001795 -0.223333 0.028219
	CHANNELS 6 Xposition Yposition Zposition Zrotation Yrotation Xrotation 
	JOINT LeftUpLeg
	{
		OFFSET 0.069520 -0.091406 -0.006815
		CHANNELS 3 Zrotation Yrotation Xrotation
		JOINT LeftLeg
		{
			OFFSET 0.034277 -0.375199 -0.004496
			CHANNELS 3 Zrotation Yrotation Xrotation
			JOINT LeftFoot
			{
				OFFSET -0.013596 -0.397961 -0.043693
				CHANNELS 3 Zrotation Yrotation Xrotation
				JOINT LeftToe
				{
					OFFSET 0.026358 -0.055791 0.119288
					CHANNELS 3 Zrotation Yrotation Xrotation
					End Site
					{
						OFFSET 0.000000 0.000000 0.000000
					}
				}
			}
		}
	}
	JOINT RightUpLeg
	{
		OFFSET -0.067670 -0.090522 -0.004320
		CHANNELS 3 Zrotation Yrotation Xrotation
		JOINT RightLeg
		{
			OFFSET -0.038290 -0.382569 -0.008850
			CHANNELS 3 Zrotation Yrotation Xrotation
			JOINT RightFoot
			{
				OFFSET 0.015774 -0.398415 -0.042312
				CHANNELS 3 Zrotation Yrotation Xrotation
				JOINT RightToe
				{
					OFFSET -0.025372 -0.048144 0.123348
					CHANNELS 3 Zrotation Yrotation Xrotation
					End Site
					{
						OFFSET 0.000000 0.000000 0.000000
					}
				}
			}
		}
	}
	JOINT Spine
	{
		OFFSET -0.002533 0.108963 -0.026696
		CHANNELS 3 Zrotation Yrotation Xrotation
		JOINT Spine1
		{
			OFFSET 0.005487 0.135180 0.001092
			CHANNELS 3 Zrotation Yrotation Xrotation
			JOINT Spine2
			{
				OFFSET 0.001457 0.052922 0.025425
				CHANNELS 3 Zrotation Yrotation Xrotation
				JOINT Neck
				{
					OFFSET -0.002778 0.213870 -0.042857
					CHANNELS 3 Zrotation Yrotation Xrotation
					JOINT Head
					{
						OFFSET 0.005152 0.064970 0.051349
						CHANNELS 3 Zrotation Yrotation Xrotation
						End Site
						{
							OFFSET 0.000000 0.000000 0.000000
						}
					}
				}
				JOINT LeftShoulder
				{
					OFFSET 0.078845 0.121749 -0.034090
					CHANNELS 3 Zrotation Yrotation Xrotation
					JOINT LeftArm
					{
						OFFSET 0.090977 0.030469 -0.008868
						CHANNELS 3 Zrotation Yrotation Xrotation
						JOINT LeftForeArm
						{
							OFFSET 0.259612 -0.012772 -0.027456
							CHANNELS 3 Zrotation Yrotation Xrotation
							JOINT LeftHand
							{
								OFFSET 0.249234 0.008986 -0.001171
								CHANNELS 3 Zrotation Yrotation Xrotation
								End Site
								{
									OFFSET 0.000000 0.000000 0.000000
								}
							}
						}
					}
				}
				JOINT RightShoulder
				{
					OFFSET -0.081759 0.118833 -0.038615
					CHANNELS 3 Zrotation Yrotation Xrotation
					JOINT RightArm
					{
						OFFSET -0.096012 0.032551 -0.009143
						CHANNELS 3 Zrotation Yrotation Xrotation
						JOINT RightForeArm
						{
							OFFSET -0.253742 -0.013329 -0.021401
							CHANNELS 3 Zrotation Yrotation Xrotation
							JOINT RightHand
							{
								OFFSET -0.255298 0.007772 -0.005559
								CHANNELS 3 Zrotation Yrotation Xrotation
								End Site
								{
									OFFSET 0.000000 0.000000 0.000000
								}
							}
						}
					}
				}
			}
		}
	}
}
MOTION
Frames: 11
Frame Time: 0.050000
0.627037 0.936297 0.892064 -4.680340 79.828264 -8.908348 5.785665 -1.639984 -11.823642 -4.223575 -1.270359 8.448402 5.765313 15.661046 18.107231 0.000000 0.000000 0.000000 -5.089817 -4.110724 13.232124 2.671500 -2.216717 4.828241 -3.980367 -9.162086 8.438713 0.000000 0.000000 0.000000 -3.113418 -1.286002 13.221487 -0.864778 2.376982 -19.863892 2.500418 12.300084 28.909970 0.213158 3.702101 -7.205682 0.000000 0.000000 0.000000 -8.937822 -20.435805 -6.302130 -31.990900 -29.468916 3.136039 69.219506 -63.063060 -62.192973 0.000000 0.000000 0.000000 -3.611910 21.529763 11.904488 -13.851989 37.607847 -1.392260 -63.327987 19.191495 -3.372571 0.000000 0.000000 0.000000 
0.637589 0.935922 0.885490 -5.350146 79.109212 -9.119763 5.542292 -1.670537 -12.344698 -4.602178 -1.390527 9.458093 6.182277 16.203525 18.220857 0.000000 0.000000 0.000000 -5.592735 -4.037417 12.836383 2.320540 -2.153518 5.412473 -4.663909 -9.293431 10.312028 0.000000 0.000000 0.000000 -3.153805 -1.162458 12.634069 -1.322722 2.434051 -19.325046 2.960125 13.191997 28.386829 0.893713 3.311475 -7.265418 0.000000 0.000000 0.000000 -8.497842 -20.436978 -5.953623 -32.352293 -29.631832 3.013259 71.284911 -63.237616 -64.325070 0.000000 0.000000 0.000000 -3.906082 21.370938 11.701616 -13.262255 38.586393 -1.250368 -60.979445 20.160654 -3.748309 0.000000 0.000000 0.000000 
0.649623 0.935210 0.877310 -4.924411 78.719586 -8.373104 4.998964 -1.660089 -12.714337 -5.010783 -1.486774 10.092166 6.979703 17.056555 18.663128 0.000000 0.000000 0.000000 -6.722823 -4.007553 12.046089 1.967453 -2.396091 7.288096 -5.063169 -9.227959 11.576358 0.000000 0.000000 0.000000 -2.934006 -1.064006 12.105525 -1.457250 2.436032 -19.532545 2.756917 14.159923 28.771273 0.894964 3.290337 -7.432885 0.000000 0.000000 0.000000 -8.363145 -20.297975 -6.166083 -33.397542 -29.612206 3.052990 73.570622 -64.697987 -67.904605 0.000000 0.000000 0.000000 -3.837338 21.051081 11.821707 -12.434445 38.590567 -1.077713 -60.260789 21.656511 -4.323862 0.000000 0.000000 0.000000 
0.662442 0.935844 0.868302 -4.505326 79.224724 -7.909800 3.961851 -1.561888 -12.688338 -4.829955 -1.550627 10.482145 6.445259 16.499091 18.053936 0.000000 0.000000 0.000000 -7.543898 -4.070054 11.502145 2.063355 -2.743304 8.461439 -5.256511 -9.135477 12.335035 0.000000 0.000000 0.000000 -2.984153 -0.985364 11.654759 -1.771834 2.483352 -18.800197 2.774357 14.210873 28.102257 1.165277 2.737380 -6.775818 0.000000 0.000000 0.000000 -8.648070 -20.346232 -6.369390 -34.180324 -28.664774 3.084063 78.096443 -66.822898 -73.841040 0.000000 0.000000 0.000000 -3.386973 21.149339 12.284377 -11.914064 38.550284 -1.059491 -57.388390 22.343743 -4.646139 0.000000 0.000000 0.000000 
0.674302 0.936678 0.860121 -4.780790 80.120697 -8.061146 3.309337 -1.503639 -12.597230 -5.175102 -1.658736 10.797018 6.732284 16.429779 17.664049 0.000000 0.000000 0.000000 -8.138089 -3.987981 10.149882 1.901778 -3.591761 11.341439 -4.710088 -8.354116 11.591325 0.000000 0.000000 0.000000 -2.492842 -0.887843 10.994527 -1.838335 2.486874 -18.349139 2.419303 14.096031 27.630659 0.919336 2.031310 -5.424576 0.000000 0.000000 0.000000 -8.542366 -20.120641 -6.558527 -35.199425 -28.457097 3.090382 82.760337 -68.999998 -80.538957 0.000000 0.000000 0.000000 -3.633232 21.490869 12.535000 -11.999914 38.876923 -1.044917 -52.808148 20.550575 -3.601556 0.000000 0.000000 0.000000 
0.683762 0.938630 0.854115 -6.713910 81.582132 -10.075628 2.838302 -1.363519 -11.895904 -5.003638 -1.585789 9.800078 6.392567 15.652772 17.209340 0.000000 0.000000 0.000000 -8.182200 -3.968109 9.402392 1.245178 -4.122158 13.335018 -4.280129 -7.083086 12.217096 0.000000 0.000000 0.000000 -1.899163 -0.802291 10.345754 -1.780533 2.477411 -18.111493 2.431358 13.609965 27.734559 0.808618 1.565588 -4.540933 0.000000 0.000000 0.000000 -8.888349 -20.396408 -7.075604 -36.165324 -28.131690 3.207404 86.793494 -71.195591 -86.624116 0.000000 0.000000 0.000000 -4.397385 22.447007 12.786511 -12.642729 39.336204 -1.052568 -46.814095 17.944619 -2.456923 0.000000 0.000000 0.000000 
0.690633 0.940951 0.851198 -8.794944 82.729553 -12.168981 2.819598 -1.268106 -11.203371 -5.278655 -1.600202 9.257716 6.238717 14.882248 16.360625 0.000000 0.000000 0.000000 -7.882437 -3.872540 8.792980 0.500902 -4.439307 14.689553 -3.366396 -5.953360 11.018883 0.000000 0.000000 0.000000 -1.444958 -0.746541 9.901362 -2.068575 2.498418 -17.588298 2.681001 13.731109 27.138859 0.805664 1.220464 -4.124252 0.000000 0.000000 0.000000 -8.904686 -20.647615 -7.413160 -36.640912 -28.595322 3.342453 90.225434 -72.158387 -91.051916 0.000000 0.000000 0.000000 -5.850738 23.795030 12.881046 -14.343122 40.194523 -1.160081 -40.349978 13.082465 -0.888630 0.000000 0.000000 0.000000 
0.695142 0.943126 0.850837 -12.706886 83.889777 -15.755672 3.212070 -1.267123 -10.819434 -5.968335 -1.633197 8.255727 6.099962 14.508505 16.418783 0.000000 0.000000 0.000000 -7.319067 -3.705855 8.241268 0.937136 -4.513874 13.987274 -2.394216 -5.609799 8.394652 0.000000 0.000000 0.000000 -0.822626 -0.754016 9.795628 -1.981339 2.484772 -17.770431 2.596331 14.054605 27.103292 1.240051 1.181643 -4.715164 0.000000 0.000000 0.000000 -8.321100 -21.244898 -7.192274 -36.420024 -29.384267 3.234215 93.294925 -71.530058 -93.900347 0.000000 0.000000 0.000000 -6.960586 24.594456 13.032918 -16.236108 40.323037 -1.327741 -36.330696 10.362956 -0.212340 0.000000 0.000000 0.000000 
0.697727 0.944826 0.852234 -18.277350 85.505176 -21.152255 3.084122 -1.219071 -10.449483 -5.420558 -1.591723 7.756426 5.379384 13.501266 16.064671 0.000000 0.000000 0.000000 -6.622120 -3.723894 8.762956 1.413220 -4.003133 11.577086 -1.763598 -5.744595 6.617116 0.000000 0.000000 0.000000 -0.561291 -0.735010 9.591980 -1.675602 2.423190 -17.324159 2.326482 13.917998 26.551014 1.346935 0.749260 -4.391939 0.000000 0.000000 0.000000 -8.046311 -21.645927 -7.226087 -36.645092 -29.806192 3.269484 95.352032 -70.367499 -95.060132 0.000000 0.000000 0.000000 -8.056892 25.063644 12.936062 -16.866832 39.789267 -1.195549 -36.568251 9.301871 0.197270 0.000000 0.000000 0.000000 
0.698618 0.945551 0.854659 -23.047735 87.006233 -25.519707 3.101776 -1.225723 -10.372790 -5.497701 -1.602211 6.876592 5.238925 13.264965 16.470258 0.000000 0.000000 0.000000 -6.167552 -3.712426 8.871398 1.953333 -3.469636 8.900668 -1.119342 -5.667820 5.184969 0.000000 0.000000 0.000000 -0.178556 -0.776899 9.766440 -1.994062 2.452821 -17.438519 2.401280 13.907542 26.222022 0.700459 1.075076 -4.567810 0.000000 0.000000 0.000000 -7.840147 -22.299559 -7.105550 -35.645837 -30.706032 3.197548 92.142241 -68.400501 -89.592300 0.000000 0.000000 0.000000 -7.949088 25.039682 13.351128 -18.865619 39.350235 -1.549108 -39.734422 9.102222 0.461224 0.000000 0.000000 0.000000 
0.697877 0.945817 0.858010 -43.718572 88.667249 -46.044478 2.445058 -1.171402 -10.432536 -4.307659 -1.514819 6.972937 4.095464 11.955888 15.954133 0.000000 0.000000 0.000000 -5.660855 -3.841782 9.613882 2.107803 -2.905012 6.317878 -0.996923 -5.738084 5.282370 0.000000 0.000000 0.000000 0.289109 -0.846042 9.979826 -1.607138 2.407788 -17.911850 1.916850 13.873202 26.623793 0.582627 1.017074 -4.779070 0.000000 0.000000 0.000000 -7.888257 -23.206788 -7.335276 -34.684053 -30.658960 3.140990 90.436438 -66.413050 -85.730493 0.000000 0.000000 0.000000 -8.215159 24.481138 13.366015 -20.096695 38.778937 -1.606632 -44.007769 8.678336 1.101198 0.000000 0.000000 0.000000 
